<?xml version="1.0" encoding="utf-8"?>
<!-- Generator: Adobe Illustrator 22.1.0, SVG Export Plug-In . SVG Version: 6.00 Build 0)  -->
<svg version="1.1" id="Ñëîé_1" xmlns="http://www.w3.org/2000/svg" xmlns:xlink="http://www.w3.org/1999/xlink" x="0px" y="0px"
	 viewBox="0 0 342.8 356.2" style="enable-background:new 0 0 342.8 356.2;" xml:space="preserve">
<style type="text/css">
	.st0{fill:#36A9E1;}
	.st1{fill:url(#SVGID_1_);}
	.st2{fill:#ECA182;}
	.st3{fill:#FBCBAB;}
	.st4{fill:#DB9172;}
	.st5{fill:#1D2247;}
	.st6{fill:#373F85;}
	.st7{opacity:0.5;fill:#29235C;}
	.st8{filter:url(#Adobe_OpacityMaskFilter);}
	.st9{filter:url(#Adobe_OpacityMaskFilter_1_);}
	.st10{mask:url(#SVGID_2_);fill:url(#SVGID_3_);}
	.st11{fill:url(#SVGID_4_);}
</style>
<g>
	<circle class="st0" cx="166.7" cy="186.5" r="166.7"/>
	<linearGradient id="SVGID_1_" gradientUnits="userSpaceOnUse" x1="24.9449" y1="287.412" x2="308.5498" y2="287.412">
		<stop  offset="0" style="stop-color:#2581C4"/>
		<stop  offset="1" style="stop-color:#2D2E83"/>
	</linearGradient>
	<path class="st1" d="M308.5,274.2c-29.4,47.4-81.9,79-141.8,79c-59.9,0-112.4-31.6-141.8-79c5.2-13,14-24.2,28.8-32.7
		c12.9-7.4,30.8-12.4,50.7-15.5c19.9-3.1,41.7-4.4,62.3-4.4c41.1,0,87.3,5,113,19.9C294.5,250,303.4,261.2,308.5,274.2z"/>
	<path class="st2" d="M216.9,135.7c0-12.3,5.4-27.4,12.1-27.4c6.7,0,13.5,2.4,13.5,14.7c0,5.9-2.1,19.3-4.2,25.1
		c-2.2,6.3-5.9,9.9-9.4,9.9C222.3,158.1,216.9,148.1,216.9,135.7z"/>
	<path class="st3" d="M166.7,32.5L166.7,32.5L166.7,32.5c-49.4,0-62.9,42.6-62.9,95.2c0,34.9,10.9,59.7,31.2,74
		c14.3,10.1,20.2,13,31.7,13v0v0c11.5,0,17.4-2.9,31.7-13c20.3-14.3,31.2-39.2,31.2-74C229.7,75.1,216.2,32.5,166.7,32.5z"/>
	<path class="st3" d="M207.8,224.1v-39.7h-82.1v39.7c-12.5,2.1-21.2,6.4-21.2,15.3c0,17.5,23.7,35.6,62.2,35.6
		c40,0,62.2-18.2,62.2-35.6C229,230.4,220.3,226.2,207.8,224.1z"/>
	<path class="st3" d="M116.6,135.7c0-12.3-5.4-27.4-12.1-27.4c-6.7,0-13.5,2.4-13.5,14.7c0,5.9,2.1,19.3,4.2,25.1
		c2.2,6.3,5.9,9.9,9.4,9.9C111.2,158.1,116.6,148.1,116.6,135.7z"/>
	<path class="st4" d="M213.8,224c-5.4,10.9-12.9,19.2-25.8,22.8c-7.1,2-14.8,0.3-22.1,0.8c-7.4,0.6-16.5,0.7-23.4-2.8
		c-6.2-3.1-11-7-15.4-12.4c-3.3-4.1-5.3-8-7.4-12.2c0-0.1-0.1-0.1-0.1-0.2c0.5,1.3,1,2.5,1.5,3.7c0.4,0.9,0.9,1.9,1.4,2.7
		c3.6,6.8,5.5,12.3,10.1,18.3c4.1,5.5,8.7,9.3,14.6,12.4c6.6,3.5,13.9,4.2,21.8,4.3c6.9,0.2,14.5-0.4,21.2-2.4
		c13.9-4.1,22.5-20.1,28.2-34.7C216.8,224.3,215.3,224.1,213.8,224z"/>
	<path class="st2" d="M166.7,32.5c-0.9,0-1.7,0-2.5,0.1C208,34,220,76,220,127.7c0,34.9-10.1,59.7-28.8,74
		c-12.2,9.3-17.8,12.5-27,12.9c0.8,0,1.6,0.1,2.5,0.1c11.5,0,17.4-2.9,31.7-13c20.3-14.3,31.2-39.2,31.2-74
		C229.7,75.1,216.2,32.5,166.7,32.5z"/>
	<path class="st5" d="M235.6,35.1c-3.2-3.8-8.2-5.9-13.1-6.8c-4.8-0.8-9,0.9-13.5-1.4c-3.1-1.5-4.6-5.4-7-7.9
		c-4.8-5-11.2-7.7-17.7-9.5C175.3,7,156.2-2.6,147,0.7c-4.2,1.5-10.6,11.6-15.1,12.7c-5.5,1.3-8.2,2.2-13.8,3.5
		c-19.7,4.3-28.3,23.3-28.8,43.9c-0.3,12,5.5,23.2,7.6,34.9c1.5,8.6-0.6,15.7,3,26c3.1,8.8,6.3,40,6.5,44.5
		c0.5,15.9,2.2,34.3,10.1,48.2c3.8,6.8,5.9,12.3,10.7,18.3c4.4,5.5,9.2,9.3,15.4,12.4c6.9,3.5,16,3.3,23.4,2.7
		c7.3-0.6,15,1.2,22.1-0.8c16.8-4.7,24.4-17.5,30.3-33.3c3.6-9.6,8.9-18,9.3-36.6c0.7-33.9,5-55.3,4.2-73.9
		C231,82.1,251.3,54,235.6,35.1z M213.1,166.8c-5.2,4.3-10.7,3.5-16.4,7.3c-7.1,4.7-15.3,11.1-23.7,11.8c-7,0.6-13.8-0.1-20.2-3.4
		c-6.5-3.5-11.7-7.6-17.8-11.7c-5.1-3.4-11.1-3-16.2-6c-6.2-3.8-9.5-12-10.2-18.8c-0.2-2-0.5-15.9-0.4-17.3
		c0.6-10.8,1.4-22.2,1.9-33.1c0.5-10.1,1.2-24.8,9.6-31.6c7.7-6.3,18.8-1.9,27.5-0.5c13.2,2.1,23.3-0.7,35.9-3.6
		c9.5-2.2,21-2.1,29.2,4.6c9.9,8.1,8.1,21.7,8.8,33.1c0.6,10.9,2.9,17.5,3.6,30.7c0.6,10.1,0.9,16.9-0.6,21.9
		C222.1,156.6,218.6,162.3,213.1,166.8z"/>
	<path class="st6" d="M216.8,172.2c-2.1-2-10.7-2.3-16.4-5.8c-4.6-2.8-7.3-6.4-11.9-8.9c-8.8-4.7-13.3-1.3-21.8-1.3v0v0
		c-8.5,0-13-3.4-21.8,1.3c-4.6,2.5-7.3,6.2-11.9,8.9c-5.7,3.4-14.2,3.8-16.4,5.8c-7.5,7,15.5,4.3,18.7,3.8c11-1.7,20.6-5.8,31.4-5.8
		v0v0c10.7,0,20.4,4.1,31.4,5.8C201.3,176.5,224.3,179.2,216.8,172.2z"/>
	<path class="st6" d="M159.6,18.1c1.9-9,44.8,3.4,42.5,1c-4.8-5-11.2-7.7-17.7-9.5C175.3,7,156.2-2.6,147,0.7
		c-4.2,1.5-10.6,11.6-15.1,12.7c-5.5,1.3-8.2,2.2-13.8,3.5c-19.7,4.3-28.3,23.3-28.8,43.9c-0.3,12,5.5,23.2,7.6,34.9
		c1.5,8.6-0.6,15.7,3,26c3.1,8.8,6.3,40,6.5,44.5c0.5,15.9,2.2,34.3,10.1,48.2c3.8,6.8,5.9,12.3,10.7,18.3c4.4,5.5,6.2-1.2,0.2-16.2
		c-3.9-9.7-7.3-16-10.4-21.1c-16-25.9-7.1-55.9-13.1-78.9c-7.8-29.9,7.1-46.4,4.4-67C103.8,15,155.8,36,159.6,18.1z"/>
	<path class="st4" d="M224.8,128.2c0,0.2,0,0.4,0,0.6c0-0.1,0-0.2,0-0.4c-1.5-9.8-3.7-13.8-4.7-25.4c-0.8-9.6-2.1-21.2-9.8-27.8
		c-7.6-6.4-14.5-6-24-4.2c-12.6,2.4-19.4,2.9-29.3,0.9c-8.7-1.8-21.8-6.3-30.8-3.1c-9.6,3.4-13.5,20.1-14.4,33.6
		c-0.6,9.1-2.8,17.3-3.5,26.3v-0.1c0.6-10.8,1.4-22.2,1.9-33.1c0.5-10.1,1.2-24.8,9.6-31.6c7.7-6.3,18.8-1.9,27.5-0.5
		c13.2,2.1,23.3-0.7,35.9-3.6c9.5-2.2,21-2.1,29.2,4.6c9.9,8.1,8.1,21.6,8.8,33.1C221.8,108.4,224,115,224.8,128.2z"/>
	<path class="st7" d="M224.8,129.5L224.8,129.5c0-0.1,0-0.2,0-0.3C224.8,129.3,224.8,129.4,224.8,129.5z"/>
	<path class="st2" d="M182.3,172.4c-5.1-1.2-10.2-2.3-15.6-2.3c-8.9,0-17,2.8-25.8,4.7c2.1,1.5,4.1,2.9,6.3,4.3
		c-1.5-3.9,10.9-5.6,20-5.6c10.3,0,23.3,3.3,19.8,6.8c2.7-1.6,5.2-3.4,7.7-5C190.5,174.5,186.4,173.4,182.3,172.4z"/>
	<defs>
		<filter id="Adobe_OpacityMaskFilter" filterUnits="userSpaceOnUse" x="0" y="0" width="333.5" height="353.2">
			<feFlood  style="flood-color:white;flood-opacity:1" result="back"/>
			<feBlend  in="SourceGraphic" in2="back" mode="normal"/>
		</filter>
	</defs>
	<mask maskUnits="userSpaceOnUse" x="0" y="0" width="333.5" height="353.2" id="SVGID_2_">
		<g class="st8">
			<defs>
				<filter id="Adobe_OpacityMaskFilter_1_" filterUnits="userSpaceOnUse" x="0" y="0" width="333.5" height="353.2">
					<feFlood  style="flood-color:white;flood-opacity:1" result="back"/>
					<feBlend  in="SourceGraphic" in2="back" mode="normal"/>
				</filter>
			</defs>
			<mask maskUnits="userSpaceOnUse" x="0" y="0" width="333.5" height="353.2" id="SVGID_2_">
				<g class="st9">
				</g>
			</mask>
			<linearGradient id="SVGID_3_" gradientUnits="userSpaceOnUse" x1="0" y1="176.6049" x2="333.4501" y2="176.6049">
				<stop  offset="0" style="stop-color:#BFBFBF"/>
				<stop  offset="1" style="stop-color:#000000"/>
			</linearGradient>
			<path class="st10" d="M234.8,34.3c-3.2-3.3-7.8-5.1-12.3-5.9c-1.2-0.2-2.5-0.3-3.6-0.2c-4.2-1.4-8.5-2.6-12.8-3.7
				c-1.4-1.7-2.5-3.8-4-5.3c-4.8-5-11.2-7.7-17.7-9.5C175.3,7,156.2-2.6,147,0.7c-4.2,1.5-10.6,11.6-15.1,12.7
				c-5.5,1.3-8.2,2.2-13.8,3.5c-11.3,2.4-18.9,9.7-23.5,19.3C38.7,63,0,120.2,0,186.5c0,92.1,74.6,166.7,166.7,166.7
				c92.1,0,166.7-74.6,166.7-166.7C333.5,118.7,293,60.3,234.8,34.3z"/>
		</g>
	</mask>
	<linearGradient id="SVGID_4_" gradientUnits="userSpaceOnUse" x1="0" y1="176.6049" x2="333.4501" y2="176.6049">
		<stop  offset="0" style="stop-color:#2581C4"/>
		<stop  offset="1" style="stop-color:#29235C"/>
	</linearGradient>
	<path class="st11" d="M234.8,34.3c-3.2-3.3-7.8-5.1-12.3-5.9c-1.2-0.2-2.5-0.3-3.6-0.2c-4.2-1.4-8.5-2.6-12.8-3.7
		c-1.4-1.7-2.5-3.8-4-5.3c-4.8-5-11.2-7.7-17.7-9.5C175.3,7,156.2-2.6,147,0.7c-4.2,1.5-10.6,11.6-15.1,12.7
		c-5.5,1.3-8.2,2.2-13.8,3.5c-11.3,2.4-18.9,9.7-23.5,19.3C38.7,63,0,120.2,0,186.5c0,92.1,74.6,166.7,166.7,166.7
		c92.1,0,166.7-74.6,166.7-166.7C333.5,118.7,293,60.3,234.8,34.3z"/>
</g>
</svg>
