<?xml version="1.0"?>
<svg xmlns="http://www.w3.org/2000/svg" viewBox="0 0 64 64" width="512" height="512"><g id="Outline"><g><path d="M61,49a1,1,0,0,0-1,1V60H17V56a1,1,0,0,0-2,0v5a1,1,0,0,0,1,1H61a1,1,0,0,0,1-1V50A1,1,0,0,0,61,49Z"/><path d="M61,2H16a1,1,0,0,0-1,1V6a1,1,0,0,0,2,0V4H60V46a1,1,0,0,0,2,0V3A1,1,0,0,0,61,2Z"/><path d="M16,53a9,9,0,0,0,7.478-4H33a1,1,0,0,0,0-2H24.475a8.936,8.936,0,0,0,.466-2H25a2.987,2.987,0,0,0,2.22-5A2.987,2.987,0,0,0,25,35V33.709A13.991,13.991,0,0,0,28.647,29H42v3a1,1,0,0,0,2,0V28a1,1,0,0,0-1-1H29.4a13.872,13.872,0,0,0,.544-3H39a1,1,0,0,0,1-1V19a1,1,0,0,0-2,0v3H29.961a13.882,13.882,0,0,0-2.667-7.25,1,1,0,1,0-1.613,1.182A11.967,11.967,0,0,1,27.316,27H24a1,1,0,0,0,0,2h2.372a12.088,12.088,0,0,1-2.988,3.446,1,1,0,0,0-.384.787V35H20V30.542a5.1,5.1,0,0,1,1.5-3.633,7.135,7.135,0,0,0,1.877-3.316l.588-2.35a1,1,0,0,0-1.417-1.138L19.2,21.783l-2.49-2.49a1,1,0,0,0-1.414,0l-2.49,2.49L9.447,20.105A1,1,0,0,0,8.03,21.243l.593,2.373a7.216,7.216,0,0,0,1.9,3.342A5.107,5.107,0,0,1,12,30.569L12,35H9V33.233a1,1,0,0,0-.384-.787A11.988,11.988,0,0,1,23.068,13.319a1,1,0,0,0,1.182-1.614A13.987,13.987,0,0,0,7,33.709V35a3,3,0,0,0,0,6H25a1,1,0,0,1,0,2H7a1,1,0,0,0,0,2h.059A9.01,9.01,0,0,0,16,53ZM11.889,25.492a5.146,5.146,0,0,1-1.326-2.361l-.065-.264L12.553,23.9a1,1,0,0,0,1.154-.188L16,21.414l2.293,2.293a1,1,0,0,0,1.154.188L21.5,22.867l-.06.241A5.139,5.139,0,0,1,20.091,25.5,7.088,7.088,0,0,0,18,30.542V35H14l0-4.43A7.146,7.146,0,0,0,11.889,25.492ZM6,38a1,1,0,0,1,1-1H25a1,1,0,0,1,0,2H7A1,1,0,0,1,6,38Zm16.929,7a6.948,6.948,0,0,1-.612,2H18a1,1,0,0,0,0,2h2.886A6.99,6.99,0,0,1,9.071,45Z"/><path d="M40.293,35.293l-4,4A1,1,0,0,0,37,41h9v8H38V44a1,1,0,0,0-2,0v6a1,1,0,0,0,1,1H47a.994.994,0,0,0,.708-.294l4-4A1,1,0,0,0,52,46V36h-.009A.973.973,0,0,0,51,35H41A1,1,0,0,0,40.293,35.293ZM48,47.586V40.414l2-2v7.172ZM48.586,37l-2,2H39.414l2-2Z"/><path d="M48,32a1,1,0,0,0,2,0V20a1,1,0,0,0-2,0Z"/><path d="M48,12v4a1,1,0,0,0,1,1h8a1,1,0,0,0,1-1V12a1,1,0,0,0-1-1H49A1,1,0,0,0,48,12Zm2,1h6v2H50Z"/><path d="M57,9a1,1,0,0,0,0-2H52a1,1,0,0,0,0,2Z"/><path d="M57,19H55a1,1,0,0,0,0,2h2a1,1,0,0,0,0-2Z"/><path d="M44,11a5,5,0,1,0-5,5A5.006,5.006,0,0,0,44,11Zm-2.184-1H40V8.184A3,3,0,0,1,41.816,10ZM36,11a3,3,0,0,1,2-2.816V11a1,1,0,0,0,1,1h2.816A2.993,2.993,0,0,1,36,11Z"/><path d="M28,55a1,1,0,0,0,0,2H52a1,1,0,0,0,0-2Z"/></g></g></svg>
